<svg height="1600" width="800" xmlns="http://www.w3.org/2000/svg" xmlns:svg="http://www.w3.org/2000/svg" xmlns:xlink="http://www.w3.org/1999/xlink">
    <style type="text/css"><![CDATA[
	polyline { fill: none; stroke: black; stroke-width: 1 }
	path { fill: none; stroke: black; stroke-width: 1 }
	line { fill: none; stroke: black; stroke-width: 1 }
	circle.node_circle  {}
	circle.taxon_circle {}
	text.node_text      {}
	text.taxon_text     {}
	line.scale_bar      {}
	text.scale_label    {}
	line.scale_major    {}
	line.scale_minor    {}
]]></style>
    <polyline points="335,84 335,95 550,95" style="stroke: rgb(0,92,230); stroke-width: 7" />
    <text class="taxon_text" style="font-family: Verdana; font-size: 12; font-style: italic" transform="rotate( 550 95.4545454545455)" x="571" y="100">Nepenthes burkei</text>
    <circle cx="550" cy="95" r="7" style="fill: rgb(255,255,255); stroke: rgb(255,255,255); stroke-width: 7" />
    <polyline points="335,84 335,72 550,72" style="stroke: rgb(0,92,230); stroke-width: 7" />
    <text class="taxon_text" style="font-family: Verdana; font-size: 12; font-style: italic" transform="rotate( 550 72.7272727272727)" x="571" y="77">Nepenthes ventricosa</text>
    <circle cx="550" cy="72" r="7" style="fill: rgb(255,255,255); stroke: rgb(255,255,255); stroke-width: 7" />
    <polyline points="264,84 264,118 550,118" style="stroke: rgb(0,92,230); stroke-width: 7" />
    <text class="taxon_text" style="font-family: Verdana; font-size: 12; font-style: italic" transform="rotate( 550 118.181818181818)" x="571" y="123">Nepenthes insignis</text>
    <circle cx="550" cy="118" r="7" style="fill: rgb(255,255,255); stroke: rgb(255,255,255); stroke-width: 7" />
    <polyline points="264,84 264,84 335,84" style="stroke: rgb(0,92,230); stroke-width: 7" />
    <polyline points="264,84 264,50 550,50" style="stroke: rgb(0,92,230); stroke-width: 7" />
    <text class="taxon_text" style="font-family: Verdana; font-size: 12; font-style: italic" transform="rotate( 550 50)" x="571" y="55">Nepenthes sibuyanensis</text>
    <circle cx="550" cy="50" r="7" style="fill: rgb(255,255,255); stroke: rgb(255,255,255); stroke-width: 7" />
    <polyline points="264,152 264,163 550,163" style="stroke: rgb(0,92,230); stroke-width: 7" />
    <text class="taxon_text" style="font-family: Verdana; font-size: 12; font-style: italic" transform="rotate( 550 163.636363636364)" x="571" y="168">Nepenthes merrilliana</text>
    <circle cx="550" cy="163" r="7" style="fill: rgb(255,255,255); stroke: rgb(255,255,255); stroke-width: 7" />
    <polyline points="264,152 264,140 550,140" style="stroke: rgb(0,92,230); stroke-width: 7" />
    <text class="taxon_text" style="font-family: Verdana; font-size: 12; font-style: italic" transform="rotate( 550 140.909090909091)" x="571" y="145">Nepenthes bellii</text>
    <circle cx="550" cy="140" r="7" style="fill: rgb(255,255,255); stroke: rgb(255,255,255); stroke-width: 7" />
    <polyline points="192,118 192,152 264,152" style="stroke: rgb(0,92,230); stroke-width: 7" />
    <polyline points="192,118 192,84 264,84" style="stroke: rgb(0,92,230); stroke-width: 7" />
    <polyline points="335,197 335,209 550,209" style="stroke: rgb(0,92,230); stroke-width: 7" />
    <text class="taxon_text" style="font-family: Verdana; font-size: 12; font-style: italic" transform="rotate( 550 209.090909090909)" x="571" y="214">Nepenthes murudensis</text>
    <circle cx="550" cy="209" r="7" style="fill: rgb(255,255,255); stroke: rgb(255,255,255); stroke-width: 7" />
    <polyline points="335,197 335,186 550,186" style="stroke: rgb(0,92,230); stroke-width: 7" />
    <text class="taxon_text" style="font-family: Verdana; font-size: 12; font-style: italic" transform="rotate( 550 186.363636363636)" x="571" y="191">Nepenthes muluensis</text>
    <circle cx="550" cy="186" r="7" style="fill: rgb(255,255,255); stroke: rgb(255,255,255); stroke-width: 7" />
    <polyline points="335,243 335,254 550,254" style="stroke: rgb(0,92,230); stroke-width: 7" />
    <text class="taxon_text" style="font-family: Verdana; font-size: 12; font-style: italic" transform="rotate( 550 254.545454545455)" x="571" y="259">Nepenthes glabrata</text>
    <circle cx="550" cy="254" r="7" style="fill: rgb(255,255,255); stroke: rgb(255,255,255); stroke-width: 7" />
    <polyline points="335,243 335,231 550,231" style="stroke: rgb(0,92,230); stroke-width: 7" />
    <text class="taxon_text" style="font-family: Verdana; font-size: 12; font-style: italic" transform="rotate( 550 231.818181818182)" x="571" y="236">Nepenthes hamata</text>
    <circle cx="550" cy="231" r="7" style="fill: rgb(255,255,255); stroke: rgb(255,255,255); stroke-width: 7" />
    <polyline points="264,220 264,243 335,243" style="stroke: rgb(0,92,230); stroke-width: 7" />
    <polyline points="264,220 264,197 335,197" style="stroke: rgb(0,92,230); stroke-width: 7" />
    <polyline points="407,334 407,345 550,345" style="stroke: rgb(0,92,230); stroke-width: 7" />
    <text class="taxon_text" style="font-family: Verdana; font-size: 12; font-style: italic" transform="rotate( 550 345.454545454545)" x="571" y="350">Nepenthes ephippiata</text>
    <circle cx="550" cy="345" r="7" style="fill: rgb(255,255,255); stroke: rgb(255,255,255); stroke-width: 7" />
    <polyline points="407,334 407,322 550,322" style="stroke: rgb(0,92,230); stroke-width: 7" />
    <text class="taxon_text" style="font-family: Verdana; font-size: 12; font-style: italic" transform="rotate( 550 322.727272727273)" x="571" y="327">Nepenthes clipeata</text>
    <circle cx="550" cy="322" r="7" style="fill: rgb(255,255,255); stroke: rgb(255,255,255); stroke-width: 7" />
    <polyline points="335,317 335,334 407,334" style="stroke: rgb(0,92,230); stroke-width: 7" />
    <polyline points="335,317 335,300 550,300" style="stroke: rgb(0,92,230); stroke-width: 7" />
    <text class="taxon_text" style="font-family: Verdana; font-size: 12; font-style: italic" transform="rotate( 550 300)" x="571" y="305">Nepenthes lowii</text>
    <circle cx="550" cy="300" r="7" style="fill: rgb(0,92,230); stroke: rgb(255,255,255); stroke-width: 7" />
    <polyline points="335,447 335,527 550,527" style="stroke: rgb(0,92,230); stroke-width: 7" />
    <text class="taxon_text" style="font-family: Verdana; font-size: 12; font-style: italic" transform="rotate( 550 527.272727272727)" x="571" y="532">Nepenthes burbidgeae</text>
    <circle cx="550" cy="527" r="7" style="fill: rgb(255,255,255); stroke: rgb(255,255,255); stroke-width: 7" />
    <polyline points="335,447 335,504 550,504" style="stroke: rgb(0,92,230); stroke-width: 7" />
    <text class="taxon_text" style="font-family: Verdana; font-size: 12; font-style: italic" transform="rotate( 550 504.545454545455)" x="571" y="509">Nepenthes fusca</text>
    <circle cx="550" cy="504" r="7" style="fill: rgb(0,92,230); stroke: rgb(255,255,255); stroke-width: 7" />
    <polyline points="335,447 335,481 550,481" style="stroke: rgb(0,92,230); stroke-width: 7" />
    <text class="taxon_text" style="font-family: Verdana; font-size: 12; font-style: italic" transform="rotate( 550 481.818181818182)" x="571" y="486">Nepenthes edwardsiana</text>
    <circle cx="550" cy="481" r="7" style="fill: rgb(255,255,255); stroke: rgb(255,255,255); stroke-width: 7" />
    <polyline points="335,447 335,459 550,459" style="stroke: rgb(0,92,230); stroke-width: 7" />
    <text class="taxon_text" style="font-family: Verdana; font-size: 12; font-style: italic" transform="rotate( 550 459.090909090909)" x="571" y="464">Nepenthes veitchii</text>
    <circle cx="550" cy="459" r="7" style="fill: rgb(0,92,230); stroke: rgb(255,255,255); stroke-width: 7" />
    <polyline points="335,447 335,436 550,436" style="stroke: rgb(0,92,230); stroke-width: 7" />
    <text class="taxon_text" style="font-family: Verdana; font-size: 12; font-style: italic" transform="rotate( 550 436.363636363636)" x="571" y="441">Nepenthes maxima</text>
    <circle cx="550" cy="436" r="7" style="fill: rgb(0,92,230); stroke: rgb(255,255,255); stroke-width: 7" />
    <polyline points="335,447 335,413 550,413" style="stroke: rgb(0,92,230); stroke-width: 7" />
    <text class="taxon_text" style="font-family: Verdana; font-size: 12; font-style: italic" transform="rotate( 550 413.636363636364)" x="571" y="418">Nepenthes pilosa</text>
    <circle cx="550" cy="413" r="7" style="fill: rgb(255,255,255); stroke: rgb(255,255,255); stroke-width: 7" />
    <polyline points="335,447 335,390 550,390" style="stroke: rgb(0,92,230); stroke-width: 7" />
    <text class="taxon_text" style="font-family: Verdana; font-size: 12; font-style: italic" transform="rotate( 550 390.909090909091)" x="571" y="395">Nepenthes eymae</text>
    <circle cx="550" cy="390" r="7" style="fill: rgb(255,255,255); stroke: rgb(255,255,255); stroke-width: 7" />
    <polyline points="335,447 335,368 550,368" style="stroke: rgb(0,92,230); stroke-width: 7" />
    <text class="taxon_text" style="font-family: Verdana; font-size: 12; font-style: italic" transform="rotate( 550 368.181818181818)" x="571" y="373">Nepenthes stenophylla</text>
    <circle cx="550" cy="368" r="7" style="fill: rgb(0,92,230); stroke: rgb(255,255,255); stroke-width: 7" />
    <polyline points="335,561 335,572 550,572" style="stroke: rgb(0,92,230); stroke-width: 7" />
    <text class="taxon_text" style="font-family: Verdana; font-size: 12; font-style: italic" transform="rotate( 550 572.727272727273)" x="571" y="577">Nepenthes alata</text>
    <circle cx="550" cy="572" r="7" style="fill: rgb(0,92,230); stroke: rgb(255,255,255); stroke-width: 7" />
    <polyline points="335,561 335,550 550,550" style="stroke: rgb(0,92,230); stroke-width: 7" />
    <text class="taxon_text" style="font-family: Verdana; font-size: 12; font-style: italic" transform="rotate( 550 550)" x="571" y="555">Nepenthes mira</text>
    <circle cx="550" cy="550" r="7" style="fill: rgb(255,255,255); stroke: rgb(255,255,255); stroke-width: 7" />
    <polyline points="264,400 264,561 335,561" style="stroke: rgb(0,92,230); stroke-width: 7" />
    <polyline points="264,400 264,447 335,447" style="stroke: rgb(0,92,230); stroke-width: 7" />
    <polyline points="264,400 264,317 335,317" style="stroke: rgb(0,92,230); stroke-width: 7" />
    <polyline points="264,400 264,277 550,277" style="stroke: rgb(0,92,230); stroke-width: 7" />
    <text class="taxon_text" style="font-family: Verdana; font-size: 12; font-style: italic" transform="rotate( 550 277.272727272727)" x="571" y="282">Nepenthes faizaliana</text>
    <circle cx="550" cy="277" r="7" style="fill: rgb(255,255,255); stroke: rgb(255,255,255); stroke-width: 7" />
    <polyline points="192,310 192,400 264,400" style="stroke: rgb(0,92,230); stroke-width: 7" />
    <polyline points="192,310 192,220 264,220" style="stroke: rgb(0,92,230); stroke-width: 7" />
    <polyline points="121,214 121,310 192,310" style="stroke: rgb(0,92,230); stroke-width: 7" />
    <polyline points="121,214 121,118 192,118" style="stroke: rgb(0,92,230); stroke-width: 7" />
    <polyline points="478,629 478,640 550,640" style="stroke: rgb(197,0,255); stroke-width: 7" />
    <text class="taxon_text" style="font-family: Verdana; font-size: 12; font-style: italic" transform="rotate( 550 640.909090909091)" x="571" y="645">Nepenthes ramispina</text>
    <circle cx="550" cy="640" r="7" style="fill: rgb(255,255,255); stroke: rgb(255,255,255); stroke-width: 7" />
    <polyline points="478,629 478,618 550,618" style="stroke: rgb(197,0,255); stroke-width: 7" />
    <text class="taxon_text" style="font-family: Verdana; font-size: 12; font-style: italic" transform="rotate( 550 618.181818181818)" x="571" y="623">Nepenthes macfarlanei</text>
    <circle cx="550" cy="618" r="7" style="fill: rgb(255,255,255); stroke: rgb(255,255,255); stroke-width: 7" />
    <polyline points="407,646 407,663 550,663" style="stroke: rgb(197,0,255); stroke-width: 7" />
    <text class="taxon_text" style="font-family: Verdana; font-size: 12; font-style: italic" transform="rotate( 550 663.636363636364)" x="571" y="668">Nepenthes sanguinea</text>
    <circle cx="550" cy="663" r="7" style="fill: rgb(255,255,255); stroke: rgb(255,255,255); stroke-width: 7" />
    <polyline points="407,646 407,629 478,629" style="stroke: rgb(197,0,255); stroke-width: 7" />
    <polyline points="335,621 335,646 407,646" style="stroke: rgb(197,0,255); stroke-width: 7" />
    <polyline points="335,621 335,595 550,595" style="stroke: rgb(197,0,255); stroke-width: 7" />
    <text class="taxon_text" style="font-family: Verdana; font-size: 12; font-style: italic" transform="rotate( 550 595.454545454545)" x="571" y="600">Nepenthes gracillima</text>
    <circle cx="550" cy="595" r="7" style="fill: rgb(255,255,255); stroke: rgb(255,255,255); stroke-width: 7" />
    <polyline points="335,697 335,709 550,709" style="stroke: rgb(197,0,255); stroke-width: 7" />
    <text class="taxon_text" style="font-family: Verdana; font-size: 12; font-style: italic" transform="rotate( 550 709.090909090909)" x="571" y="714">Nepenthes macrovulgaris</text>
    <circle cx="550" cy="709" r="7" style="fill: rgb(255,255,255); stroke: rgb(255,255,255); stroke-width: 7" />
    <polyline points="335,697 335,686 550,686" style="stroke: rgb(197,0,255); stroke-width: 7" />
    <text class="taxon_text" style="font-family: Verdana; font-size: 12; font-style: italic" transform="rotate( 550 686.363636363636)" x="571" y="691">Nepenthes reinwardtiana</text>
    <circle cx="550" cy="686" r="7" style="fill: rgb(255,255,255); stroke: rgb(255,255,255); stroke-width: 7" />
    <polyline points="264,659 264,697 335,697" style="stroke: rgb(197,0,255); stroke-width: 7" />
    <polyline points="264,659 264,621 335,621" style="stroke: rgb(197,0,255); stroke-width: 7" />
    <polyline points="192,695 192,731 550,731" style="stroke: rgb(197,0,255); stroke-width: 7" />
    <text class="taxon_text" style="font-family: Verdana; font-size: 12; font-style: italic" transform="rotate( 550 731.818181818182)" x="571" y="736">Nepenthes mikei</text>
    <circle cx="550" cy="731" r="7" style="fill: rgb(255,255,255); stroke: rgb(255,255,255); stroke-width: 7" />
    <polyline points="192,695 192,659 264,659" style="stroke: rgb(197,0,255); stroke-width: 7" />
    <polyline points="407,777 407,800 550,800" style="stroke: rgb(197,0,255); stroke-width: 7" />
    <text class="taxon_text" style="font-family: Verdana; font-size: 12; font-style: italic" transform="rotate( 550 800)" x="571" y="805">Nepenthes hirsuta</text>
    <circle cx="550" cy="800" r="7" style="fill: rgb(255,255,255); stroke: rgb(255,255,255); stroke-width: 7" />
    <polyline points="407,777 407,777 550,777" style="stroke: rgb(197,0,255); stroke-width: 7" />
    <text class="taxon_text" style="font-family: Verdana; font-size: 12; font-style: italic" transform="rotate( 550 777.272727272727)" x="571" y="782">Nepenthes ampullaria</text>
    <circle cx="550" cy="777" r="7" style="fill: rgb(197,0,255); stroke: rgb(255,255,255); stroke-width: 7" />
    <polyline points="407,777 407,754 550,754" style="stroke: rgb(197,0,255); stroke-width: 7" />
    <text class="taxon_text" style="font-family: Verdana; font-size: 12; font-style: italic" transform="rotate( 550 754.545454545455)" x="571" y="759">Nepenthes mirabilis</text>
    <circle cx="550" cy="754" r="7" style="fill: rgb(197,0,255); stroke: rgb(255,255,255); stroke-width: 7" />
    <polyline points="335,828 335,868 550,868" style="stroke: rgb(197,0,255); stroke-width: 7" />
    <text class="taxon_text" style="font-family: Verdana; font-size: 12; font-style: italic" transform="rotate( 550 868.181818181818)" x="571" y="873">Nepenthes gracilis</text>
    <circle cx="550" cy="868" r="7" style="fill: rgb(197,0,255); stroke: rgb(255,255,255); stroke-width: 7" />
    <polyline points="335,828 335,845 550,845" style="stroke: rgb(197,0,255); stroke-width: 7" />
    <text class="taxon_text" style="font-family: Verdana; font-size: 12; font-style: italic" transform="rotate( 550 845.454545454545)" x="571" y="850">Nepenthes bicalcarata</text>
    <circle cx="550" cy="845" r="7" style="fill: rgb(197,0,255); stroke: rgb(255,255,255); stroke-width: 7" />
    <polyline points="335,828 335,822 550,822" style="stroke: rgb(197,0,255); stroke-width: 7" />
    <text class="taxon_text" style="font-family: Verdana; font-size: 12; font-style: italic" transform="rotate( 550 822.727272727273)" x="571" y="827">Nepenthes mapuluensis</text>
    <circle cx="550" cy="822" r="7" style="fill: rgb(255,255,255); stroke: rgb(255,255,255); stroke-width: 7" />
    <polyline points="335,828 335,777 407,777" style="stroke: rgb(197,0,255); stroke-width: 7" />
    <polyline points="335,913 335,936 550,936" style="stroke: rgb(197,0,255); stroke-width: 7" />
    <text class="taxon_text" style="font-family: Verdana; font-size: 12; font-style: italic" transform="rotate( 550 936.363636363636)" x="571" y="941">Nepenthes thorelii</text>
    <circle cx="550" cy="936" r="7" style="fill: rgb(255,255,255); stroke: rgb(255,255,255); stroke-width: 7" />
    <polyline points="335,913 335,913 550,913" style="stroke: rgb(197,0,255); stroke-width: 7" />
    <text class="taxon_text" style="font-family: Verdana; font-size: 12; font-style: italic" transform="rotate( 550 913.636363636364)" x="571" y="918">Nepenthes rafflesiana</text>
    <circle cx="550" cy="913" r="7" style="fill: rgb(197,0,255); stroke: rgb(255,255,255); stroke-width: 7" />
    <polyline points="335,913 335,890 550,890" style="stroke: rgb(197,0,255); stroke-width: 7" />
    <text class="taxon_text" style="font-family: Verdana; font-size: 12; font-style: italic" transform="rotate( 550 890.909090909091)" x="571" y="895">Nepenthes albomarginata</text>
    <circle cx="550" cy="890" r="7" style="fill: rgb(197,0,255); stroke: rgb(255,255,255); stroke-width: 7" />
    <polyline points="335,970 335,981 550,981" style="stroke: rgb(197,0,255); stroke-width: 7" />
    <text class="taxon_text" style="font-family: Verdana; font-size: 12; font-style: italic" transform="rotate( 550 981.818181818182)" x="571" y="986">Nepenthes truncata</text>
    <circle cx="550" cy="981" r="7" style="fill: rgb(255,255,255); stroke: rgb(255,255,255); stroke-width: 7" />
    <polyline points="335,970 335,959 550,959" style="stroke: rgb(197,0,255); stroke-width: 7" />
    <text class="taxon_text" style="font-family: Verdana; font-size: 12; font-style: italic" transform="rotate( 550 959.090909090909)" x="571" y="964">Nepenthes petiolata</text>
    <circle cx="550" cy="959" r="7" style="fill: rgb(255,255,255); stroke: rgb(255,255,255); stroke-width: 7" />
    <polyline points="335,1027 335,1050 550,1050" style="stroke: rgb(197,0,255); stroke-width: 7" />
    <text class="taxon_text" style="font-family: Verdana; font-size: 12; font-style: italic" transform="rotate( 550 1050)" x="571" y="1055">Nepenthes rajah</text>
    <circle cx="550" cy="1050" r="7" style="fill: rgb(255,255,255); stroke: rgb(255,255,255); stroke-width: 7" />
    <polyline points="335,1027 335,1027 550,1027" style="stroke: rgb(197,0,255); stroke-width: 7" />
    <text class="taxon_text" style="font-family: Verdana; font-size: 12; font-style: italic" transform="rotate( 550 1027.27272727273)" x="571" y="1032">Nepenthes boschiana</text>
    <circle cx="550" cy="1027" r="7" style="fill: rgb(255,255,255); stroke: rgb(255,255,255); stroke-width: 7" />
    <polyline points="335,1027 335,1004 550,1004" style="stroke: rgb(0,92,230); stroke-width: 7" />
    <text class="taxon_text" style="font-family: Verdana; font-size: 12; font-style: italic" transform="rotate( 550 1004.54545454545)" x="571" y="1009">Nepenthes villosa</text>
    <circle cx="550" cy="1004" r="7" style="fill: rgb(255,255,255); stroke: rgb(255,255,255); stroke-width: 7" />
    <polyline points="264,934 264,1027 335,1027" style="stroke: rgb(197,0,255); stroke-width: 7" />
    <polyline points="264,934 264,970 335,970" style="stroke: rgb(197,0,255); stroke-width: 7" />
    <polyline points="264,934 264,913 335,913" style="stroke: rgb(197,0,255); stroke-width: 7" />
    <polyline points="264,934 264,828 335,828" style="stroke: rgb(197,0,255); stroke-width: 7" />
    <polyline points="335,1163 335,1186 550,1186" style="stroke: rgb(197,0,255); stroke-width: 7" />
    <text class="taxon_text" style="font-family: Verdana; font-size: 12; font-style: italic" transform="rotate( 550 1186.36363636364)" x="571" y="1191">Nepenthes densiflora</text>
    <circle cx="550" cy="1186" r="7" style="fill: rgb(255,255,255); stroke: rgb(255,255,255); stroke-width: 7" />
    <polyline points="335,1163 335,1163 550,1163" style="stroke: rgb(197,0,255); stroke-width: 7" />
    <text class="taxon_text" style="font-family: Verdana; font-size: 12; font-style: italic" transform="rotate( 550 1163.63636363636)" x="571" y="1168">Nepenthes singalana</text>
    <circle cx="550" cy="1163" r="7" style="fill: rgb(255,255,255); stroke: rgb(255,255,255); stroke-width: 7" />
    <polyline points="335,1163 335,1140 550,1140" style="stroke: rgb(197,0,255); stroke-width: 7" />
    <text class="taxon_text" style="font-family: Verdana; font-size: 12; font-style: italic" transform="rotate( 550 1140.90909090909)" x="571" y="1145">Nepenthes diatas</text>
    <circle cx="550" cy="1140" r="7" style="fill: rgb(255,255,255); stroke: rgb(255,255,255); stroke-width: 7" />
    <polyline points="407,1243 407,1254 550,1254" style="stroke: rgb(197,0,255); stroke-width: 7" />
    <text class="taxon_text" style="font-family: Verdana; font-size: 12; font-style: italic" transform="rotate( 550 1254.54545454545)" x="571" y="1259">Nepenthes talangensis</text>
    <circle cx="550" cy="1254" r="7" style="fill: rgb(255,255,255); stroke: rgb(255,255,255); stroke-width: 7" />
    <polyline points="407,1243 407,1231 550,1231" style="stroke: rgb(197,0,255); stroke-width: 7" />
    <text class="taxon_text" style="font-family: Verdana; font-size: 12; font-style: italic" transform="rotate( 550 1231.81818181818)" x="571" y="1236">Nepenthes aristolochioides</text>
    <circle cx="550" cy="1231" r="7" style="fill: rgb(255,255,255); stroke: rgb(255,255,255); stroke-width: 7" />
    <polyline points="335,1243 335,1277 550,1277" style="stroke: rgb(197,0,255); stroke-width: 7" />
    <text class="taxon_text" style="font-family: Verdana; font-size: 12; font-style: italic" transform="rotate( 550 1277.27272727273)" x="571" y="1282">Nepenthes spathulata</text>
    <circle cx="550" cy="1277" r="7" style="fill: rgb(255,255,255); stroke: rgb(255,255,255); stroke-width: 7" />
    <polyline points="335,1243 335,1243 407,1243" style="stroke: rgb(197,0,255); stroke-width: 7" />
    <polyline points="335,1243 335,1209 550,1209" style="stroke: rgb(197,0,255); stroke-width: 7" />
    <text class="taxon_text" style="font-family: Verdana; font-size: 12; font-style: italic" transform="rotate( 550 1209.09090909091)" x="571" y="1214">Nepenthes pectinata</text>
    <circle cx="550" cy="1209" r="7" style="fill: rgb(255,255,255); stroke: rgb(255,255,255); stroke-width: 7" />
    <polyline points="407,1470 407,1481 550,1481" style="stroke: rgb(197,0,255); stroke-width: 7" />
    <text class="taxon_text" style="font-family: Verdana; font-size: 12; font-style: italic" transform="rotate( 550 1481.81818181818)" x="571" y="1486">Nepenthes bongso</text>
    <circle cx="550" cy="1481" r="7" style="fill: rgb(255,255,255); stroke: rgb(255,255,255); stroke-width: 7" />
    <polyline points="407,1470 407,1459 550,1459" style="stroke: rgb(197,0,255); stroke-width: 7" />
    <text class="taxon_text" style="font-family: Verdana; font-size: 12; font-style: italic" transform="rotate( 550 1459.09090909091)" x="571" y="1464">Nepenthes gymnamphora</text>
    <circle cx="550" cy="1459" r="7" style="fill: rgb(255,255,255); stroke: rgb(255,255,255); stroke-width: 7" />
    <polyline points="407,1515 407,1527 550,1527" style="stroke: rgb(197,0,255); stroke-width: 7" />
    <text class="taxon_text" style="font-family: Verdana; font-size: 12; font-style: italic" transform="rotate( 550 1527.27272727273)" x="571" y="1532">Nepenthes inermis</text>
    <circle cx="550" cy="1527" r="7" style="fill: rgb(255,255,255); stroke: rgb(255,255,255); stroke-width: 7" />
    <polyline points="407,1515 407,1504 550,1504" style="stroke: rgb(197,0,255); stroke-width: 7" />
    <text class="taxon_text" style="font-family: Verdana; font-size: 12; font-style: italic" transform="rotate( 550 1504.54545454545)" x="571" y="1509">Nepenthes dubia</text>
    <circle cx="550" cy="1504" r="7" style="fill: rgb(255,255,255); stroke: rgb(255,255,255); stroke-width: 7" />
    <polyline points="335,1395 335,1515 407,1515" style="stroke: rgb(197,0,255); stroke-width: 7" />
    <polyline points="335,1395 335,1470 407,1470" style="stroke: rgb(197,0,255); stroke-width: 7" />
    <polyline points="335,1395 335,1436 550,1436" style="stroke: rgb(197,0,255); stroke-width: 7" />
    <text class="taxon_text" style="font-family: Verdana; font-size: 12; font-style: italic" transform="rotate( 550 1436.36363636364)" x="571" y="1441">Nepenthes eustachys</text>
    <circle cx="550" cy="1436" r="7" style="fill: rgb(255,255,255); stroke: rgb(255,255,255); stroke-width: 7" />
    <polyline points="335,1395 335,1413 550,1413" style="stroke: rgb(197,0,255); stroke-width: 7" />
    <text class="taxon_text" style="font-family: Verdana; font-size: 12; font-style: italic" transform="rotate( 550 1413.63636363636)" x="571" y="1418">Nepenthes spectabilis</text>
    <circle cx="550" cy="1413" r="7" style="fill: rgb(255,255,255); stroke: rgb(255,255,255); stroke-width: 7" />
    <polyline points="335,1395 335,1390 550,1390" style="stroke: rgb(197,0,255); stroke-width: 7" />
    <text class="taxon_text" style="font-family: Verdana; font-size: 12; font-style: italic" transform="rotate( 550 1390.90909090909)" x="571" y="1395">Nepenthes longifolia</text>
    <circle cx="550" cy="1390" r="7" style="fill: rgb(255,255,255); stroke: rgb(255,255,255); stroke-width: 7" />
    <polyline points="335,1395 335,1368 550,1368" style="stroke: rgb(197,0,255); stroke-width: 7" />
    <text class="taxon_text" style="font-family: Verdana; font-size: 12; font-style: italic" transform="rotate( 550 1368.18181818182)" x="571" y="1373">Nepenthes sumatrana</text>
    <circle cx="550" cy="1368" r="7" style="fill: rgb(255,255,255); stroke: rgb(255,255,255); stroke-width: 7" />
    <polyline points="335,1395 335,1345 550,1345" style="stroke: rgb(197,0,255); stroke-width: 7" />
    <text class="taxon_text" style="font-family: Verdana; font-size: 12; font-style: italic" transform="rotate( 550 1345.45454545455)" x="571" y="1350">Nepenthes ovata</text>
    <circle cx="550" cy="1345" r="7" style="fill: rgb(255,255,255); stroke: rgb(255,255,255); stroke-width: 7" />
    <polyline points="335,1395 335,1322 550,1322" style="stroke: rgb(197,0,255); stroke-width: 7" />
    <text class="taxon_text" style="font-family: Verdana; font-size: 12; font-style: italic" transform="rotate( 550 1322.72727272727)" x="571" y="1327">Nepenthes rhombicaulis</text>
    <circle cx="550" cy="1322" r="7" style="fill: rgb(255,255,255); stroke: rgb(255,255,255); stroke-width: 7" />
    <polyline points="335,1395 335,1300 550,1300" style="stroke: rgb(197,0,255); stroke-width: 7" />
    <text class="taxon_text" style="font-family: Verdana; font-size: 12; font-style: italic" transform="rotate( 550 1300)" x="571" y="1305">Nepenthes adnata</text>
    <circle cx="550" cy="1300" r="7" style="fill: rgb(255,255,255); stroke: rgb(255,255,255); stroke-width: 7" />
    <polyline points="264,1181 264,1395 335,1395" style="stroke: rgb(197,0,255); stroke-width: 7" />
    <polyline points="264,1181 264,1243 335,1243" style="stroke: rgb(197,0,255); stroke-width: 7" />
    <polyline points="264,1181 264,1163 335,1163" style="stroke: rgb(197,0,255); stroke-width: 7" />
    <polyline points="264,1181 264,1118 550,1118" style="stroke: rgb(197,0,255); stroke-width: 7" />
    <text class="taxon_text" style="font-family: Verdana; font-size: 12; font-style: italic" transform="rotate( 550 1118.18181818182)" x="571" y="1123">Nepenthes tobaica</text>
    <circle cx="550" cy="1118" r="7" style="fill: rgb(255,255,255); stroke: rgb(255,255,255); stroke-width: 7" />
    <polyline points="264,1181 264,1095 550,1095" style="stroke: rgb(197,0,255); stroke-width: 7" />
    <text class="taxon_text" style="font-family: Verdana; font-size: 12; font-style: italic" transform="rotate( 550 1095.45454545455)" x="571" y="1100">Nepenthes xiphioides</text>
    <circle cx="550" cy="1095" r="7" style="fill: rgb(255,255,255); stroke: rgb(255,255,255); stroke-width: 7" />
    <polyline points="264,1181 264,1072 550,1072" style="stroke: rgb(197,0,255); stroke-width: 7" />
    <text class="taxon_text" style="font-family: Verdana; font-size: 12; font-style: italic" transform="rotate( 550 1072.72727272727)" x="571" y="1077">Nepenthes lavicola</text>
    <circle cx="550" cy="1072" r="7" style="fill: rgb(255,255,255); stroke: rgb(255,255,255); stroke-width: 7" />
    <polyline points="192,1058 192,1181 264,1181" style="stroke: rgb(197,0,255); stroke-width: 7" />
    <polyline points="192,1058 192,934 264,934" style="stroke: rgb(197,0,255); stroke-width: 7" />
    <polyline points="121,876 121,1058 192,1058" style="stroke: rgb(197,0,255); stroke-width: 7" />
    <polyline points="121,876 121,695 192,695" style="stroke: rgb(197,0,255); stroke-width: 7" />
    <polyline points="50,545 50,876 121,876" style="stroke: rgb(197,0,255); stroke-width: 7" />
    <polyline points="50,545 50,214 121,214" style="stroke: rgb(0,92,230); stroke-width: 7" />
</svg>